<svg width="1786" height="731" viewBox="0 0 1786 731" fill="none" xmlns="http://www.w3.org/2000/svg">
<g opacity="0.02">
<path d="M68.5086 366.623L1.05305 5.47838C0.839097 4.80533 0.798133 4.08924 0.933923 3.39617C1.06971 2.70311 1.37788 2.05545 1.83001 1.5129C2.28213 0.970347 2.86364 0.550415 3.52086 0.291873C4.17807 0.0333304 4.88982 -0.0554973 5.59042 0.0335812H113.217C114.54 -0.0686148 115.851 0.347687 116.872 1.19442C117.894 2.04115 118.547 3.25195 118.692 4.57095L154.235 248.046H172.384L207.957 4.57095C208.095 3.24883 208.745 2.03339 209.769 1.18519C210.792 0.336983 212.107 -0.0764483 213.432 0.0335812H321.028C321.729 -0.0529757 322.441 0.0372252 323.098 0.295935C323.755 0.554644 324.338 0.97366 324.792 1.51484C325.246 2.05601 325.557 2.70215 325.697 3.39442C325.838 4.08669 325.803 4.80306 325.596 5.47838L266.308 366.623L325.596 724.984C325.809 725.661 325.849 726.381 325.712 727.078C325.574 727.774 325.264 728.425 324.809 728.97C324.354 729.515 323.769 729.938 323.109 730.198C322.448 730.458 321.733 730.548 321.028 730.459H213.523C212.193 730.569 210.874 730.151 209.85 729.297C208.825 728.442 208.178 727.219 208.048 725.891L172.475 482.416H154.325L118.783 725.891C118.645 727.216 117.995 728.434 116.973 729.287C115.95 730.14 114.635 730.561 113.308 730.459H5.74167C5.03958 730.542 4.32787 730.448 3.67146 730.185C3.01506 729.923 2.43485 729.5 1.98373 728.956C1.53261 728.411 1.22494 727.763 1.0888 727.069C0.952658 726.375 0.992372 725.658 1.20431 724.984L68.5086 366.623Z" fill="#303030"/>
<path d="M355.33 4.56991C355.294 3.96486 355.388 3.35923 355.603 2.7928C355.819 2.22636 356.152 1.71195 356.58 1.28339C357.009 0.85483 357.523 0.52184 358.09 0.306255C358.656 0.0906704 359.262 -0.00261889 359.867 0.0325471H469.308C469.914 -0.0022074 470.521 0.0911218 471.089 0.30644C471.657 0.521758 472.173 0.854258 472.604 1.28228C473.035 1.7103 473.371 2.22423 473.59 2.79067C473.809 3.35712 473.906 3.96336 473.876 4.56991L502.128 410.392H520.278L544.175 4.56991C544.175 0.94002 545.99 0.0325471 548.742 0.0325471H630.808C633.531 0.0325471 635.376 0.94002 635.376 4.56991L659.121 410.392H677.271L705.554 4.56991C705.518 3.96216 705.612 3.3538 705.829 2.78514C706.047 2.21647 706.383 1.70053 706.815 1.27148C707.246 0.84243 707.765 0.51006 708.335 0.29647C708.905 0.0828798 709.514 -0.00707954 710.121 0.0325471H819.442C820.049 -0.00707954 820.658 0.0828798 821.228 0.29647C821.798 0.51006 822.316 0.84243 822.748 1.27148C823.18 1.70053 823.516 2.21647 823.733 2.78514C823.951 3.3538 824.045 3.96216 824.009 4.56991L773.886 724.983C773.927 725.593 773.836 726.205 773.621 726.777C773.405 727.349 773.07 727.869 772.638 728.302C772.205 728.734 771.685 729.069 771.113 729.285C770.541 729.5 769.929 729.591 769.319 729.55H620.675C617.952 729.55 616.137 728.643 616.137 724.983L598.805 437.616H580.655L563.322 724.983C563.322 728.643 561.507 729.55 558.755 729.55H410.02C409.412 729.586 408.804 729.492 408.235 729.275C407.666 729.057 407.15 728.721 406.721 728.29C406.292 727.858 405.96 727.339 405.746 726.769C405.533 726.199 405.443 725.59 405.482 724.983L355.33 4.56991Z" fill="#303030"/>
<path d="M976.89 419.498V620.11H1090.87C1091.48 620.075 1092.09 620.169 1092.66 620.386C1093.23 620.603 1093.75 620.939 1094.18 621.37C1094.61 621.801 1094.94 622.319 1095.16 622.889C1095.38 623.459 1095.47 624.069 1095.44 624.678V724.984C1095.48 725.594 1095.39 726.206 1095.17 726.778C1094.96 727.351 1094.62 727.87 1094.19 728.303C1093.76 728.735 1093.24 729.07 1092.66 729.286C1092.09 729.501 1091.48 729.592 1090.87 729.552H862.881C862.274 729.587 861.665 729.493 861.097 729.276C860.528 729.058 860.012 728.723 859.583 728.291C859.154 727.859 858.822 727.341 858.608 726.771C858.394 726.2 858.304 725.591 858.344 724.984V4.57097C858.309 3.96592 858.402 3.36029 858.618 2.79385C858.833 2.22742 859.166 1.713 859.595 1.28444C860.024 0.855887 860.538 0.522896 861.104 0.307311C861.671 0.0917267 862.276 -0.00156263 862.881 0.0336034H1081.76C1082.37 -0.00156263 1082.97 0.0917267 1083.54 0.307311C1084.11 0.522896 1084.62 0.855887 1085.05 1.28444C1085.48 1.713 1085.81 2.22742 1086.03 2.79385C1086.24 3.36029 1086.34 3.96592 1086.3 4.57097V104.907C1086.34 105.512 1086.24 106.118 1086.03 106.684C1085.81 107.251 1085.48 107.765 1085.05 108.194C1084.62 108.622 1084.11 108.955 1083.54 109.171C1082.97 109.387 1082.37 109.48 1081.76 109.445H976.89V310.057H1063.52C1064.13 310.026 1064.74 310.123 1065.3 310.342C1065.87 310.562 1066.38 310.898 1066.81 311.328C1067.24 311.759 1067.57 312.275 1067.79 312.843C1068 313.411 1068.1 314.018 1068.06 314.624V414.931C1068.1 415.538 1068.01 416.147 1067.8 416.717C1067.58 417.287 1067.25 417.805 1066.82 418.237C1066.39 418.669 1065.88 419.005 1065.31 419.222C1064.74 419.44 1064.13 419.534 1063.52 419.498H976.89Z" fill="#303030"/>
<path d="M1448.32 724.983C1448.32 728.643 1446.51 729.551 1443.79 729.551H1334.34C1331.62 729.551 1329.78 728.643 1329.78 724.983L1320.7 542.611H1256.85L1247.77 724.983C1247.77 728.643 1245.96 729.551 1243.2 729.551H1133.73C1130.98 729.551 1129.17 728.643 1129.17 724.983L1169.31 4.57008C1169.31 0.940188 1171.12 0.0327148 1173.84 0.0327148H1403.74C1406.49 0.0327148 1408.3 0.940188 1408.3 4.57008L1448.32 724.983ZM1263.23 433.17H1314.29L1297.86 109.504H1279.71L1263.23 433.17Z" fill="#303030"/>
<path d="M1782.63 729.551H1671.38C1670.25 729.399 1669.17 728.991 1668.23 728.356C1667.28 727.721 1666.5 726.878 1665.93 725.89C1654.07 707.741 1654.07 675.737 1654.07 658.435L1655.89 401.317H1601.17V724.983C1601.21 725.593 1601.12 726.205 1600.9 726.777C1600.69 727.35 1600.35 727.869 1599.92 728.302C1599.49 728.734 1598.97 729.069 1598.4 729.285C1597.82 729.5 1597.21 729.591 1596.6 729.551H1487.19C1486.58 729.591 1485.97 729.5 1485.4 729.285C1484.82 729.069 1484.3 728.734 1483.87 728.302C1483.44 727.869 1483.1 727.35 1482.89 726.777C1482.67 726.205 1482.58 725.593 1482.62 724.983V4.56991C1482.59 3.96216 1482.68 3.3538 1482.9 2.78514C1483.12 2.21647 1483.45 1.70053 1483.88 1.27148C1484.32 0.84243 1484.83 0.51006 1485.4 0.29647C1485.97 0.0828798 1486.58 -0.00707955 1487.19 0.0325471H1683.23C1756.2 0.0325471 1774.44 54.723 1774.44 145.924V271.76C1774.44 321.006 1746.15 335.616 1731.57 337.431V355.581C1745.25 357.396 1774.44 371.976 1774.44 421.221V658.344C1774.44 673.832 1774.44 705.745 1785.39 723.985C1785.83 724.485 1786.11 725.103 1786.19 725.763C1786.28 726.422 1786.17 727.093 1785.87 727.689C1785.58 728.286 1785.11 728.781 1784.54 729.112C1783.96 729.444 1783.3 729.596 1782.63 729.551ZM1655.89 291.846V109.444H1601.17V291.846H1655.89Z" fill="#303030"/>
</g>
</svg>
